<svg width="47" height="94" viewBox="0 0 47 94" fill="none" xmlns="http://www.w3.org/2000/svg">
<path d="M-1.71196e-07 90.0835C2.9231 89.542 4.23401 89.8774 6.23469 90.8744C7.86491 91.6867 8.85401 91.4949 10.2208 91.2299C11.0656 91.0661 12.0547 90.8744 13.4286 90.8744C14.7203 90.8744 15.61 90.726 16.4309 90.5892C17.8958 90.3449 19.1413 90.1373 22.0612 90.8744C23.0284 91.1185 23.8444 91.3775 24.5732 91.6088C27.2777 92.4673 28.7835 92.9452 32.3725 90.8744C38.5388 90.8744 39.2184 91.1564 41.777 92.2178C42.6014 92.5598 43.6208 92.9827 45.0816 93.5032C45.8194 93.7661 46.4519 93.9244 47 94L47 4.54067C45.7956 4.52911 44.4577 4.37773 42.9235 3.95726C41.293 3.5104 40.3832 3.06353 39.7888 2.77158C39.3584 2.56027 39.0934 2.43014 38.84 2.44001C38.4338 2.45581 38.0574 2.83135 37.0776 3.80868L36.9286 3.95726C35.097 5.78258 32.8031 5.07313 30.8494 4.46886C29.9894 4.20283 29.1954 3.95726 28.5357 3.95726L13.4286 3.95726C8.63265 3.95726 8.39285 3.95726 6.23469 1.32838C4.58065 -0.686432 3.9126 -0.288429 0.560086 1.70866C0.381234 1.8152 0.194713 1.92632 -4.01962e-06 2.04184L-1.71196e-07 90.0835Z" fill="#5E2BB8" fill-opacity="0.5"/>
</svg>
