<svg width="206" height="193" viewBox="0 0 206 193" fill="none" xmlns="http://www.w3.org/2000/svg">
<path d="M48.752 190.479L5.62578 169.158C2.53516 167.62 0 163.931 0 160.954V4.44367C0 1.46699 2.53516 0.284861 5.62578 1.80881L48.752 23.1298C51.8427 24.6538 54.3778 28.3426 54.3778 31.3335V187.844C54.3778 190.821 51.8569 192.017 48.752 190.479Z" fill="#5E2BB8"/>
<path d="M80.9827 94.9974L124.109 72.9073C127.2 71.3264 129.735 67.4951 129.735 64.4188V3.41816C129.735 0.327539 127.2 -0.897315 124.109 0.683602L80.9827 22.7737C77.8921 24.3546 75.3569 28.1859 75.3569 31.2622V92.2628C75.3569 95.3535 77.8921 96.5783 80.9827 94.9974Z" fill="#08D1D9"/>
<path d="M80.9827 192.316L124.109 170.226C127.2 168.645 129.735 164.814 129.735 161.738V100.737C129.735 97.6465 127.2 96.4217 124.109 98.0026L80.9827 120.093C77.8921 121.674 75.3569 125.491 75.3569 128.581V189.582C75.3569 192.672 77.8921 193.897 80.9827 192.316Z" fill="#08D1D9"/>
<path d="M199.466 190.479L156.34 169.158C153.249 167.634 150.714 163.945 150.714 160.954V4.44367C150.714 1.46699 153.249 0.284861 156.34 1.80881L199.466 23.1298C202.557 24.6538 205.092 28.3426 205.092 31.3335V187.844C205.092 190.821 202.557 192.017 199.466 190.479Z" fill="#5E2BB8"/>
</svg>
