<svg width="509" height="125" viewBox="0 0 509 125" fill="none" xmlns="http://www.w3.org/2000/svg">
<path d="M82.5625 22.9403H51.5977V0H31.5314V22.93H0V40.1327H17.7383C11.0736 46.2309 6.91196 54.8013 6.91196 64.3298C6.91196 82.8098 22.518 97.7874 41.7706 97.7874C61.0231 97.7874 76.6292 82.8098 76.6292 64.3298C76.6292 54.8013 72.4572 46.2206 65.8028 40.1327H82.5625V22.9403ZM41.7706 79.6164C31.9537 79.6164 24.0013 71.6538 24.0013 61.8472C24.0013 52.0304 31.964 44.078 41.7706 44.078C51.5874 44.078 59.5398 52.0407 59.5398 61.8472C59.5398 71.6538 51.5874 79.6164 41.7706 79.6164Z" fill="white"/>
<path d="M389.306 71.9835H267.177V89.1862H318.208V124.828L338.275 120.233V89.1862H389.306V71.9835Z" fill="white"/>
<path d="M304.199 47.673V40.9053H372.598V24.8151H304.199V18.0577H373.566V0.85498H283.236V5.30501V18.0577V24.8151V40.9053V47.673V56.2744V64.8757H375.523V47.673H304.199Z" fill="white"/>
<path d="M488.494 0V39.1644H472.219C468.51 22.3944 453.172 9.45632 434.805 9.45632C413.668 9.45632 396.527 26.5972 396.527 47.7348C396.527 68.8725 413.668 86.0134 434.805 86.0134C453.007 86.0134 468.232 73.3019 472.115 56.2847H488.504V124.828L508.571 120.244V0H488.494ZM434.805 67.2346C424.03 67.2346 415.306 58.4994 415.306 47.7348C415.306 36.9703 424.041 28.235 434.805 28.235C445.58 28.235 454.305 36.9703 454.305 47.7348C454.305 58.4994 445.58 67.2346 434.805 67.2346Z" fill="white"/>
<path d="M130.39 39.6486H109.417V0H108.521H89.3508H88.4546V124.828L89.3508 124.622V124.828L109.417 120.233V56.2744H130.39H130.72V39.6486H130.39Z" fill="white"/>
<path d="M241.868 39.1644V0H221.801V64.5976C209.759 69.4184 195.966 69.7172 195.966 69.7172L163.982 70.1498V5.30502H143.915V89.3509H197.522C206.051 89.5157 216.733 86.1267 221.801 84.3446V124.817L241.868 120.233V56.2744H263.737V39.1644H241.868Z" fill="white"/>
</svg>
