<svg width="150" height="30" viewBox="0 0 150 30" fill="none" xmlns="http://www.w3.org/2000/svg">
<g clip-path="url(#clip0_53_556)">
<g clip-path="url(#clip1_53_556)">
<path d="M7.57804 29.6082L0.874474 26.294C0.394067 26.0549 0 25.4815 0 25.0188V0.690724C0 0.228028 0.394067 0.0442775 0.874474 0.28116L7.57804 3.59531C8.05845 3.83219 8.45251 4.40558 8.45251 4.87049V29.1986C8.45251 29.6613 8.06066 29.8472 7.57804 29.6082Z" fill="#5E2BB8"/>
<path d="M12.5881 14.7664L19.2917 11.3327C19.7721 11.087 20.1661 10.4915 20.1661 10.0133V0.531328C20.1661 0.0509204 19.7721 -0.139471 19.2917 0.106267L12.5881 3.53996C12.1077 3.7857 11.7136 4.38123 11.7136 4.85942V14.3414C11.7136 14.8218 12.1077 15.0122 12.5881 14.7664Z" fill="#08D1D9"/>
<path d="M12.5881 29.8937L19.2917 26.46C19.7721 26.2143 20.1661 25.6188 20.1661 25.1406V15.6586C20.1661 15.1782 19.7721 14.9878 19.2917 15.2336L12.5881 18.6673C12.1077 18.913 11.7136 19.5063 11.7136 19.9867V29.4687C11.7136 29.9491 12.1077 30.1395 12.5881 29.8937Z" fill="#08D1D9"/>
<path d="M31.005 29.6082L24.3015 26.294C23.8211 26.0571 23.427 25.4837 23.427 25.0188V0.690724C23.427 0.228028 23.8211 0.0442775 24.3015 0.28116L31.005 3.59531C31.4854 3.83219 31.8795 4.40558 31.8795 4.87049V29.1986C31.8795 29.6613 31.4854 29.8472 31.005 29.6082Z" fill="#5E2BB8"/>
<path d="M57.5737 7.85256H50.9188V2.92229H46.6062V7.85034H39.8296V11.5475H43.6419C42.2095 12.8581 41.3151 14.7 41.3151 16.7478C41.3151 20.7195 44.6691 23.9385 48.8068 23.9385C52.9445 23.9385 56.2985 20.7195 56.2985 16.7478C56.2985 14.7 55.4019 12.8559 53.9717 11.5475H57.5737V7.85256ZM48.8068 20.0332C46.697 20.0332 44.9879 18.3219 44.9879 16.2143C44.9879 14.1045 46.6992 12.3954 48.8068 12.3954C50.9166 12.3954 52.6257 14.1067 52.6257 16.2143C52.6257 18.3219 50.9166 20.0332 48.8068 20.0332Z" fill="#5E2BB8"/>
<path d="M123.498 18.3927H97.2505V22.0899H108.218V29.7498L112.531 28.7625V22.0899H123.498V18.3927Z" fill="#5E2BB8"/>
<path d="M105.207 13.168V11.7135H119.907V8.25548H105.207V6.80319H120.115V3.10604H100.702V4.06243V6.80319V8.25548V11.7135V13.168V15.0166V16.8652H120.536V13.168H105.207Z" fill="#5E2BB8"/>
<path d="M144.815 2.92229V11.3394H141.317C140.52 7.73522 137.224 4.95462 133.277 4.95462C128.734 4.95462 125.05 8.63848 125.05 13.1813C125.05 17.7242 128.734 21.408 133.277 21.408C137.188 21.408 140.46 18.6761 141.295 15.0188H144.817V29.7498L149.13 28.7647V2.92229H144.815ZM133.277 17.3722C130.961 17.3722 129.086 15.4948 129.086 13.1813C129.086 10.8678 130.963 8.99048 133.277 8.99048C135.592 8.99048 137.467 10.8678 137.467 13.1813C137.467 15.4948 135.592 17.3722 133.277 17.3722Z" fill="#5E2BB8"/>
<path d="M67.8527 11.4434H63.3453V2.92229H63.1527H59.0327H58.8401V29.7498L59.0327 29.7056V29.7498L63.3453 28.7625V15.0166H67.8527H67.9236V11.4434H67.8527Z" fill="#5E2BB8"/>
<path d="M91.8111 11.3394V2.92229H87.4985V16.8054C84.9105 17.8415 81.9461 17.9057 81.9461 17.9057L75.0721 17.9987V4.06243H70.7595V22.1253H82.2804C84.1135 22.1607 86.4093 21.4324 87.4985 21.0494V29.7476L91.8111 28.7625V15.0166H96.5111V11.3394H91.8111Z" fill="#5E2BB8"/>
</g>
</g>
<defs>
<clipPath id="clip0_53_556">
<rect width="149.128" height="30" fill="white"/>
</clipPath>
<clipPath id="clip1_53_556">
<rect width="149.128" height="30" fill="white"/>
</clipPath>
</defs>
</svg>
